<?xml version="1.0" encoding="UTF-8"?>
<svg width="478px" height="140px" viewBox="0 0 478 140" version="1.1" xmlns="http://www.w3.org/2000/svg" xmlns:xlink="http://www.w3.org/1999/xlink">
    <!-- Generator: Sketch 52.6 (67491) - http://www.bohemiancoding.com/sketch -->
    <title>Group</title>
    <desc>Created with Sketch.</desc>
    <g id="Page-1" stroke="none" stroke-width="1" fill="none" fill-rule="evenodd">
        <g id="Group" transform="translate(8.000000, -25.000000)">
            <text id="jcoco" font-family="LeagueSpartan-Bold, League Spartan" font-size="80" font-weight="bold" fill="#1E3B66">
                <tspan x="0.46" y="92">jcoco</tspan>
            </text>
            <text id="prime" font-family="LeagueSpartan-Bold, League Spartan" font-size="80" font-weight="bold" fill="#D75F44">
                <tspan x="226.16" y="92">prime</tspan>
            </text>
            <g id="noun_arrow-smile_827273" transform="translate(229.117203, 138.299149) scale(-1, 1) rotate(-7.000000) translate(-229.117203, -138.299149) translate(130.617203, 110.799149)" fill="#000000">
                <path d="M141.399695,44.181494 C132.111848,45.3851977 122.824002,46.0333459 113.747243,45.8481607 C104.670483,45.5703829 96.0158992,44.5518644 87.7834899,42.7926052 C71.1075837,39.3666792 56.7536391,33.1629755 44.2994813,26.3111237 C37.5446839,22.7000126 31.4231487,18.8111237 25.3016135,14.7370496 L40.9220826,12.144457 L23.1907393,5.75556812 L8.96818704,0.630451237 L7.31784163,4.57951049 L0.976269696,18.9517493 L16.2248545,16.2185311 C20.024428,21.0333459 24.8794387,25.7555681 30.7898864,30.2926052 C36.2781594,34.4592718 42.8218694,38.4407533 50.8431913,41.9592718 C58.6534259,45.5703829 67.9412724,48.7185311 78.7067308,50.9407533 C83.9839163,52.0518644 89.6832766,52.9777903 95.5937244,53.5333459 C98.5489483,53.7185311 101.504172,54.0889015 104.459396,54.181494 C107.41462,54.2740866 110.369844,54.3666792 113.536155,54.3666792 C125.568138,54.2740866 136.966859,52.7926052 147.310142,50.7555681 C167.785622,46.4037163 184.039353,39.644457 196.071336,31.9592718 C177.917818,37.0518644 159.975388,41.681494 141.399695,44.181494 Z" id="Path"></path>
            </g>
        </g>
    </g>
</svg>